<svg width="15" height="15" viewBox="0 0 15 15" fill="none" xmlns="http://www.w3.org/2000/svg">
<g clip-path="url(#clip0_5925_11)">
<path d="M0.660889 3.49685L7.22339 11.9343C7.25749 11.9744 7.29989 12.0065 7.34764 12.0286C7.39539 12.0507 7.44736 12.0621 7.49995 12.0621C7.55255 12.0621 7.60452 12.0507 7.65227 12.0286C7.70002 12.0065 7.74241 11.9744 7.77651 11.9343L14.339 3.49685C14.3799 3.44517 14.4054 3.38298 14.4124 3.31745C14.4195 3.25192 14.4078 3.18573 14.3789 3.12653C14.3496 3.06754 14.3046 3.01786 14.2487 2.98308C14.1928 2.9483 14.1283 2.9298 14.0625 2.92966L0.937452 2.92966C0.871619 2.9298 0.807132 2.9483 0.751236 2.98308C0.695341 3.01786 0.650255 3.06754 0.621045 3.12654C0.592066 3.18573 0.580428 3.25192 0.587479 3.31745C0.594529 3.38298 0.61998 3.44517 0.660889 3.49685Z" fill="#14142B"/>
</g>
<defs>
<clipPath id="clip0_5925_11">
<rect width="15" height="15" fill="white" transform="translate(15 15) rotate(180)"/>
</clipPath>
</defs>
</svg>
