<svg width="160" height="29" viewBox="0 0 160 29" fill="none" xmlns="http://www.w3.org/2000/svg">
<rect width="160" height="29" rx="5" fill="#136EF6"/>
<path d="M25.8186 18.11L25.1046 20H22.8926L26.7286 10.088H29.0246L32.8046 20H30.5786L29.8926 18.11H25.8186ZM26.4066 16.318H29.2906L27.8626 12.244L26.4066 16.318ZM37.0261 12.622H39.0141V14.498C39.0141 14.7593 39.0328 14.9787 39.0701 15.156C39.1075 15.3333 39.1728 15.4733 39.2661 15.576C39.3688 15.6787 39.5041 15.758 39.6721 15.814C39.8401 15.8607 40.0595 15.8887 40.3301 15.898C40.5448 15.9073 40.7735 15.898 41.0161 15.87C41.2588 15.8327 41.4501 15.8047 41.5901 15.786V12.622H43.5641V20H41.5901V17.508C41.3288 17.5547 41.0488 17.5873 40.7501 17.606C40.4608 17.6247 40.1621 17.6293 39.8541 17.62C39.4435 17.6013 39.0468 17.5407 38.6641 17.438C38.2815 17.326 37.9548 17.1253 37.6841 16.836C37.4508 16.584 37.2828 16.2807 37.1801 15.926C37.0775 15.562 37.0261 15.1093 37.0261 14.568V12.622ZM44.3721 14.33V12.622H51.2461V14.33H48.7821V20H46.8081V14.33H44.3721ZM55.5031 20.112C54.3084 20.112 53.3891 19.776 52.7451 19.104C52.1011 18.4227 51.7791 17.48 51.7791 16.276C51.7791 15.6973 51.8631 15.1747 52.0311 14.708C52.2084 14.232 52.4511 13.826 52.7591 13.49C53.0764 13.154 53.4637 12.902 53.9211 12.734C54.3877 12.5567 54.9151 12.468 55.5031 12.468C56.0817 12.468 56.5997 12.5567 57.0571 12.734C57.5237 12.902 57.9157 13.154 58.2331 13.49C58.5597 13.826 58.8071 14.232 58.9751 14.708C59.1524 15.1747 59.2411 15.6973 59.2411 16.276C59.2411 17.4893 58.9144 18.432 58.2611 19.104C57.6171 19.776 56.6977 20.112 55.5031 20.112ZM55.5031 14.232C54.9057 14.232 54.4577 14.428 54.1591 14.82C53.8697 15.212 53.7251 15.702 53.7251 16.29C53.7251 16.8873 53.8697 17.382 54.1591 17.774C54.4577 18.166 54.9057 18.362 55.5031 18.362C56.1004 18.362 56.5391 18.166 56.8191 17.774C57.1084 17.382 57.2531 16.8873 57.2531 16.29C57.2531 15.702 57.1084 15.212 56.8191 14.82C56.5391 14.428 56.1004 14.232 55.5031 14.232ZM71.058 12.622V20H69.084V14.33H66.256V20H64.282V12.622H71.058ZM76.0519 20.112C74.8572 20.112 73.9379 19.776 73.2939 19.104C72.6499 18.4227 72.3279 17.48 72.3279 16.276C72.3279 15.6973 72.4119 15.1747 72.5799 14.708C72.7572 14.232 72.9999 13.826 73.3079 13.49C73.6252 13.154 74.0126 12.902 74.4699 12.734C74.9366 12.5567 75.4639 12.468 76.0519 12.468C76.6306 12.468 77.1486 12.5567 77.6059 12.734C78.0726 12.902 78.4646 13.154 78.7819 13.49C79.1086 13.826 79.3559 14.232 79.5239 14.708C79.7012 15.1747 79.7899 15.6973 79.7899 16.276C79.7899 17.4893 79.4632 18.432 78.8099 19.104C78.1659 19.776 77.2466 20.112 76.0519 20.112ZM76.0519 14.232C75.4546 14.232 75.0066 14.428 74.7079 14.82C74.4186 15.212 74.2739 15.702 74.2739 16.29C74.2739 16.8873 74.4186 17.382 74.7079 17.774C75.0066 18.166 75.4546 18.362 76.0519 18.362C76.6492 18.362 77.0879 18.166 77.3679 17.774C77.6572 17.382 77.8019 16.8873 77.8019 16.29C77.8019 15.702 77.6572 15.212 77.3679 14.82C77.0879 14.428 76.6492 14.232 76.0519 14.232ZM87.9634 12.622V18.292H88.9294V22.03H86.9554V20H82.2934V22.03H80.3054V18.292H80.5854C80.8187 18.292 80.996 18.2313 81.1174 18.11C81.2387 17.9793 81.3367 17.816 81.4114 17.62C81.4954 17.396 81.556 17.158 81.5934 16.906C81.6307 16.654 81.6587 16.444 81.6774 16.276C81.7427 15.6507 81.7754 15.044 81.7754 14.456C81.7847 13.8587 81.7987 13.2473 81.8174 12.622H87.9634ZM85.9754 18.292V14.33H83.6514C83.6514 14.6193 83.642 14.9133 83.6234 15.212C83.614 15.5107 83.6 15.8093 83.5814 16.108C83.5627 16.4627 83.5254 16.8407 83.4694 17.242C83.4134 17.634 83.2967 17.984 83.1194 18.292H85.9754ZM94.5371 19.09C94.2571 19.4633 93.9118 19.7293 93.5011 19.888C93.0998 20.0467 92.6378 20.1213 92.1151 20.112C91.4338 20.0933 90.8645 19.902 90.4071 19.538C90.1645 19.3327 89.9731 19.09 89.8331 18.81C89.7025 18.5207 89.6371 18.18 89.6371 17.788C89.6465 17.3867 89.7351 17.032 89.9031 16.724C90.0805 16.4067 90.3465 16.1453 90.7011 15.94C90.9998 15.7813 91.3358 15.6693 91.7091 15.604C92.0918 15.5387 92.5071 15.506 92.9551 15.506H94.4671C94.4951 15.0487 94.3878 14.708 94.1451 14.484C93.9118 14.2507 93.5805 14.1293 93.1511 14.12C93.0111 14.12 92.8665 14.1293 92.7171 14.148C92.5678 14.1667 92.4278 14.204 92.2971 14.26C92.1758 14.316 92.0685 14.3953 91.9751 14.498C91.8911 14.5913 91.8351 14.708 91.8071 14.848H89.7771C89.8238 14.4 89.9451 14.0267 90.1411 13.728C90.3465 13.42 90.6031 13.1727 90.9111 12.986C91.2191 12.7993 91.5598 12.6687 91.9331 12.594C92.3158 12.51 92.7078 12.468 93.1091 12.468C93.3331 12.468 93.5618 12.482 93.7951 12.51C94.0285 12.5287 94.2571 12.5753 94.4811 12.65C94.7051 12.7153 94.9151 12.8087 95.1111 12.93C95.3165 13.042 95.5078 13.1913 95.6851 13.378C96.0025 13.742 96.1985 14.162 96.2731 14.638C96.3571 15.1047 96.3945 15.562 96.3851 16.01V20H94.5791L94.5371 19.09ZM94.4671 16.738H93.0251C92.8851 16.738 92.7265 16.752 92.5491 16.78C92.3718 16.808 92.2178 16.8593 92.0871 16.934C91.9565 17.0087 91.8445 17.1067 91.7511 17.228C91.6671 17.3493 91.6251 17.4987 91.6251 17.676C91.6251 17.8253 91.6531 17.956 91.7091 18.068C91.7745 18.18 91.8538 18.2733 91.9471 18.348C92.0498 18.4227 92.1711 18.4833 92.3111 18.53C92.4511 18.5673 92.5911 18.586 92.7311 18.586C93.0018 18.5953 93.2538 18.5487 93.4871 18.446C93.7298 18.3433 93.9398 18.1987 94.1171 18.012C94.2291 17.8627 94.3131 17.6947 94.3691 17.508C94.4345 17.312 94.4671 17.0553 94.4671 16.738ZM99.9165 13.616C100.206 13.2613 100.565 12.986 100.995 12.79C101.433 12.5847 101.872 12.4773 102.311 12.468C102.833 12.4587 103.319 12.552 103.767 12.748C104.215 12.9347 104.588 13.252 104.887 13.7C105.129 14.0267 105.307 14.4093 105.419 14.848C105.531 15.2867 105.587 15.7487 105.587 16.234C105.587 16.8407 105.512 17.3913 105.363 17.886C105.223 18.3713 104.98 18.7913 104.635 19.146C104.345 19.4633 103.991 19.706 103.571 19.874C103.151 20.0327 102.731 20.112 102.311 20.112C102.105 20.112 101.9 20.098 101.695 20.07C101.489 20.0513 101.284 20.0093 101.079 19.944C100.873 19.8787 100.668 19.7853 100.463 19.664C100.267 19.5427 100.08 19.3793 99.9025 19.174V23.08H97.9285V12.622H99.8045L99.9165 13.616ZM101.765 14.232C101.475 14.232 101.214 14.288 100.981 14.4C100.757 14.5027 100.565 14.6473 100.407 14.834C100.248 15.0207 100.122 15.2353 100.029 15.478C99.9445 15.7207 99.9025 15.982 99.9025 16.262C99.8932 16.8873 100.057 17.3913 100.393 17.774C100.738 18.1473 101.205 18.3433 101.793 18.362C102.11 18.362 102.381 18.3107 102.605 18.208C102.829 18.1053 103.011 17.9607 103.151 17.774C103.3 17.5873 103.412 17.368 103.487 17.116C103.571 16.864 103.613 16.5887 103.613 16.29C103.613 16.0007 103.571 15.73 103.487 15.478C103.412 15.226 103.295 15.0067 103.137 14.82C102.987 14.6333 102.801 14.4887 102.577 14.386C102.353 14.2833 102.082 14.232 101.765 14.232ZM108.776 17.032L112.192 12.622H113.886V20H111.898V15.73L108.58 20H106.802V12.622H108.776V17.032ZM114.7 14.33V12.622H121.574V14.33H119.11V20H117.136V14.33H114.7ZM125.761 18.502C126.041 18.502 126.279 18.46 126.475 18.376C126.681 18.2827 126.849 18.1333 126.979 17.928H129.051C128.949 18.3107 128.79 18.642 128.575 18.922C128.37 19.202 128.118 19.4307 127.819 19.608C127.53 19.7853 127.208 19.916 126.853 20C126.499 20.0747 126.125 20.112 125.733 20.112C124.539 20.112 123.633 19.776 123.017 19.104C122.411 18.432 122.107 17.4893 122.107 16.276C122.107 15.7253 122.187 15.2167 122.345 14.75C122.513 14.2833 122.747 13.882 123.045 13.546C123.344 13.2007 123.713 12.9347 124.151 12.748C124.599 12.5613 125.108 12.468 125.677 12.468C126.34 12.468 126.914 12.5847 127.399 12.818C127.885 13.0513 128.267 13.3733 128.547 13.784C128.837 14.1853 129.028 14.6567 129.121 15.198C129.224 15.7393 129.224 16.318 129.121 16.934H124.081C124.119 17.3727 124.273 17.746 124.543 18.054C124.814 18.3527 125.22 18.502 125.761 18.502ZM127.287 15.576C127.287 15.3427 127.245 15.1373 127.161 14.96C127.077 14.7733 126.965 14.624 126.825 14.512C126.685 14.3907 126.517 14.302 126.321 14.246C126.135 14.19 125.939 14.162 125.733 14.162C125.239 14.1713 124.851 14.3067 124.571 14.568C124.301 14.82 124.142 15.156 124.095 15.576H127.287ZM132.315 16.878C132.269 16.598 132.255 16.3553 132.273 16.15C132.301 15.9353 132.348 15.744 132.413 15.576C132.488 15.408 132.581 15.2587 132.693 15.128C132.805 14.988 132.927 14.848 133.057 14.708C133.197 14.5587 133.347 14.4093 133.505 14.26C133.673 14.1107 133.832 13.9567 133.981 13.798C134.131 13.6393 134.252 13.476 134.345 13.308C134.448 13.1307 134.504 12.944 134.513 12.748C134.523 12.412 134.415 12.1647 134.191 12.006C133.977 11.8473 133.701 11.7633 133.365 11.754C133.188 11.7447 133.015 11.754 132.847 11.782C132.689 11.81 132.544 11.866 132.413 11.95C132.292 12.0247 132.189 12.132 132.105 12.272C132.021 12.412 131.975 12.594 131.965 12.818H130.061C130.052 12.398 130.136 11.992 130.313 11.6C130.491 11.208 130.747 10.886 131.083 10.634C131.335 10.4473 131.639 10.2933 131.993 10.172C132.348 10.0413 132.805 9.97133 133.365 9.962C133.757 9.962 134.131 9.99467 134.485 10.06C134.849 10.1253 135.171 10.2513 135.451 10.438C135.769 10.6433 136.021 10.9233 136.207 11.278C136.403 11.6233 136.497 12.0527 136.487 12.566C136.487 12.9487 136.417 13.2847 136.277 13.574C136.147 13.8633 135.955 14.148 135.703 14.428C135.517 14.624 135.33 14.8107 135.143 14.988C134.957 15.156 134.784 15.338 134.625 15.534C134.476 15.7207 134.35 15.9213 134.247 16.136C134.154 16.3507 134.112 16.598 134.121 16.878H132.315ZM133.267 17.732C133.65 17.732 133.949 17.844 134.163 18.068C134.378 18.292 134.485 18.586 134.485 18.95C134.485 19.314 134.378 19.6033 134.163 19.818C133.949 20.0233 133.65 20.126 133.267 20.126C132.885 20.126 132.581 20.0233 132.357 19.818C132.143 19.6127 132.035 19.3233 132.035 18.95C132.035 18.586 132.143 18.292 132.357 18.068C132.581 17.844 132.885 17.732 133.267 17.732Z" fill="#FCFCFC"/>
</svg>
